<?xml version="1.0" encoding="utf-8"?><svg viewBox="0 0 26 26" xmlns="http://www.w3.org/2000/svg" xmlns:xlink="http://www.w3.org/1999/xlink"><style>:root>svg{display:none}:root>svg:target{display:block}</style><svg viewBox="0 0 25 25" id="FrameTwo" xmlns="http://www.w3.org/2000/svg"><path d="M12.125 12.125a5.5 5.5 0 1 0 0-11 5.5 5.5 0 0 0 0 11Zm3.667-5.5a3.666 3.666 0 1 1-7.333 0 3.666 3.666 0 0 1 7.333 0Zm7.333 14.667c0 1.833-1.833 1.833-1.833 1.833H2.958s-1.833 0-1.833-1.833c0-1.834 1.833-7.334 11-7.334s11 5.5 11 7.334Zm-1.833-.008c-.002-.45-.283-1.807-1.526-3.05-1.195-1.196-3.444-2.442-7.641-2.442-4.198 0-6.446 1.246-7.641 2.442-1.243 1.243-1.522 2.6-1.526 3.05h18.334Z"/></svg><svg viewBox="0 0 25 24" id="bucket" xmlns="http://www.w3.org/2000/svg"><g clip-path="url(#aa)"><path d="M4.564 7.5h-.783a.75.75 0 0 0-.74.861l2.057 13.723A2.25 2.25 0 0 0 7.321 24h10.917a2.25 2.25 0 0 0 2.225-1.916l2.06-13.723a.75.75 0 0 0-.742-.861h-.783a8.25 8.25 0 0 0-16.434 0Zm1.508 0a6.75 6.75 0 0 1 13.417 0H6.072ZM20.91 9l-1.93 12.861a.75.75 0 0 1-.74.639H7.32a.75.75 0 0 1-.74-.639L4.65 9H20.91Z"/></g><defs><clipPath id="aa"><path transform="translate(.781)" d="M0 0h24v24H0z"/></clipPath></defs></svg><svg viewBox="0 0 20 20" id="card" xmlns="http://www.w3.org/2000/svg"><path d="M0 5a2.5 2.5 0 0 1 2.5-2.5h15A2.5 2.5 0 0 1 20 5v10a2.5 2.5 0 0 1-2.5 2.5h-15A2.5 2.5 0 0 1 0 15V5Zm2.5-1.25A1.25 1.25 0 0 0 1.25 5v1.25h17.5V5a1.25 1.25 0 0 0-1.25-1.25h-15Zm16.25 5H1.25V15a1.25 1.25 0 0 0 1.25 1.25h15A1.25 1.25 0 0 0 18.75 15V8.75Z"/><path d="M2.5 12.5a1.25 1.25 0 0 1 1.25-1.25H5a1.25 1.25 0 0 1 1.25 1.25v1.25A1.25 1.25 0 0 1 5 15H3.75a1.25 1.25 0 0 1-1.25-1.25V12.5Z"/></svg><svg viewBox="0 0 20 21" id="exit" xmlns="http://www.w3.org/2000/svg"><g clip-path="url(#ca)" fill-rule="evenodd" clip-rule="evenodd"><path d="M12.5 16.125a.624.624 0 0 1-.625.625h-10a.625.625 0 0 1-.625-.625V4.875a.625.625 0 0 1 .625-.625h10a.625.625 0 0 1 .625.625v2.5a.625.625 0 1 0 1.25 0v-2.5A1.875 1.875 0 0 0 11.875 3h-10A1.875 1.875 0 0 0 0 4.875v11.25A1.875 1.875 0 0 0 1.875 18h10a1.875 1.875 0 0 0 1.875-1.875v-2.5a.624.624 0 1 0-1.25 0v2.5Z"/><path d="M19.817 10.943a.625.625 0 0 0 0-.886l-3.75-3.75a.626.626 0 0 0-.885.885l2.684 2.683H6.875a.625.625 0 1 0 0 1.25h10.991l-2.684 2.682a.626.626 0 1 0 .885.886l3.75-3.75Z"/></g><defs><clipPath id="ca"><path fill="#fff" transform="translate(0 .5)" d="M0 0h20v20H0z"/></clipPath></defs></svg><svg viewBox="0 0 25 24" id="heart" xmlns="http://www.w3.org/2000/svg"><g clip-path="url(#ea)"><path d="m12.781 5.214-1.075-1.13C9.18 1.43 4.552 2.346 2.88 5.68c-.784 1.569-.961 3.834.471 6.724 1.38 2.783 4.251 6.116 9.43 9.747 5.177-3.63 8.047-6.964 9.428-9.747 1.433-2.892 1.257-5.155.471-6.724-1.67-3.335-6.3-4.252-8.824-1.599L12.78 5.214Zm0 18.786c-23-15.536-7.081-27.661-.264-21.247.09.084.179.171.264.262.085-.09.173-.177.264-.26 6.816-6.42 22.736 5.708-.264 21.245Z"/></g><defs><clipPath id="ea"><path transform="translate(.781)" d="M0 0h24v24H0z"/></clipPath></defs></svg><svg viewBox="0 0 26 26" id="house" xmlns="http://www.w3.org/2000/svg"><path d="M14.149 2.438a1.625 1.625 0 0 0-2.298 0L1.05 13.238a.813.813 0 1 0 1.15 1.15l1.05-1.052v8.601a2.437 2.437 0 0 0 2.438 2.438h14.625a2.438 2.438 0 0 0 2.437-2.438v-8.6l1.05 1.05a.814.814 0 0 0 1.15-1.15l-3.825-3.823V4.063a.813.813 0 0 0-.813-.813h-1.625a.813.813 0 0 0-.812.813v2.1l-3.726-3.725Zm6.976 9.273v10.226a.813.813 0 0 1-.813.813H5.688a.812.812 0 0 1-.813-.813V11.711L13 3.586l8.125 8.125Z"/></svg><svg viewBox="0 0 24 24" id="list" xmlns="http://www.w3.org/2000/svg"><path fill-rule="evenodd" clip-rule="evenodd" d="M3 20.056c0-.25.088-.491.244-.668a.787.787 0 0 1 .59-.277H20.5c.221 0 .433.1.59.277.155.177.243.417.243.668 0 .25-.087.49-.244.667A.787.787 0 0 1 20.5 21H3.833a.787.787 0 0 1-.589-.277A1.012 1.012 0 0 1 3 20.056ZM3 12.5c0-.25.088-.49.244-.668a.787.787 0 0 1 .59-.276H20.5c.221 0 .433.1.59.276.155.177.243.417.243.668 0 .25-.087.49-.244.668a.787.787 0 0 1-.589.276H3.833a.787.787 0 0 1-.589-.276A1.012 1.012 0 0 1 3 12.5Zm0-7.556c0-.25.088-.49.244-.667A.787.787 0 0 1 3.834 4H20.5c.221 0 .433.1.59.277.155.177.243.417.243.667 0 .25-.087.491-.244.668a.787.787 0 0 1-.589.277H3.833a.787.787 0 0 1-.589-.277A1.012 1.012 0 0 1 3 4.944Z"/></svg><svg viewBox="0 0 20 20" id="message" xmlns="http://www.w3.org/2000/svg"><path fill-rule="evenodd" clip-rule="evenodd" d="M3.706 15.665a1.43 1.43 0 0 0-.067-.58 1.355 1.355 0 0 0-.291-.493c-1.325-1.425-2.098-3.25-2.098-5.216C1.25 5.101 5.005 1.34 10 1.34s8.75 3.762 8.75 8.037c0 4.277-3.755 8.037-8.75 8.037a9.443 9.443 0 0 1-2.61-.364 1.174 1.174 0 0 0-.889.099c-.484.262-1.55.763-3.292 1.196.243-.875.41-1.771.497-2.679Zm-1 4.163.025-.005c2.288-.486 3.685-1.128 4.335-1.48.957.273 1.944.411 2.934.41 5.523 0 10-4.198 10-9.377C20 4.198 15.523 0 10 0 4.478 0 0 4.198 0 9.376c0 2.358.929 4.514 2.462 6.162a14.832 14.832 0 0 1-.655 3.105l-.003.014c-.093.288-.195.573-.305.854-.099.249.092.527.341.485.29-.051.578-.107.866-.168Z"/></svg><svg viewBox="0 0 20 20" id="personal_data" xmlns="http://www.w3.org/2000/svg"><path d="M7.2 10.4a3.6 3.6 0 1 0 0-7.2 3.6 3.6 0 0 0 0 7.2Zm2.4-3.6a2.4 2.4 0 1 1-4.8 0 2.4 2.4 0 0 1 4.8 0Zm4.8 9.6c0 1.2-1.2 1.2-1.2 1.2h-12S0 17.6 0 16.4s1.2-4.8 7.2-4.8 7.2 3.6 7.2 4.8Zm-1.2-.005c-.001-.295-.185-1.183-.998-1.997-.783-.782-2.255-1.598-5.002-1.598-2.748 0-4.22.816-5.002 1.598-.813.814-.996 1.702-.998 1.997h12ZM14.4 5.395c0-.158.059-.31.164-.42a.544.544 0 0 1 .396-.175h4.48c.148 0 .291.063.396.174a.614.614 0 0 1 .164.421c0 .158-.059.31-.164.42a.544.544 0 0 1-.396.175h-4.48a.544.544 0 0 1-.396-.174.614.614 0 0 1-.164-.42Zm.56 2.975a.544.544 0 0 0-.396.174.614.614 0 0 0-.164.421c0 .158.059.31.164.42a.544.544 0 0 0 .396.175h4.48a.544.544 0 0 0 .396-.174.614.614 0 0 0 .164-.42.614.614 0 0 0-.164-.422.544.544 0 0 0-.396-.174h-4.48Zm2.24 3.57a.544.544 0 0 0-.396.174.614.614 0 0 0-.164.421c0 .158.059.31.164.42a.544.544 0 0 0 .396.175h2.24a.544.544 0 0 0 .396-.174.614.614 0 0 0 .164-.421.614.614 0 0 0-.164-.42.544.544 0 0 0-.396-.175H17.2Zm0 3.57a.544.544 0 0 0-.396.174.614.614 0 0 0-.164.421c0 .158.059.31.164.42a.544.544 0 0 0 .396.175h2.24a.544.544 0 0 0 .396-.174.614.614 0 0 0 .164-.421.614.614 0 0 0-.164-.42.544.544 0 0 0-.396-.175H17.2Z"/></svg><svg viewBox="0 0 20 20" id="settings" xmlns="http://www.w3.org/2000/svg"><g clip-path="url(#ja)"><path d="M10 5.942a4.057 4.057 0 1 0 0 8.115 4.057 4.057 0 0 0 0-8.115ZM7.193 10a2.807 2.807 0 1 1 5.614 0 2.807 2.807 0 0 1-5.614 0Z"/><path d="M12.245 1.679c-.659-2.238-3.831-2.238-4.49 0l-.117.399a1.091 1.091 0 0 1-1.57.65l-.364-.2c-2.05-1.115-4.291 1.127-3.175 3.176l.199.365a1.091 1.091 0 0 1-.65 1.569l-.4.117c-2.237.659-2.237 3.831 0 4.49l.4.118a1.092 1.092 0 0 1 .65 1.568l-.2.365c-1.115 2.05 1.126 4.293 3.176 3.175l.365-.198a1.09 1.09 0 0 1 1.569.65l.117.398c.659 2.238 3.831 2.238 4.49 0l.118-.398a1.092 1.092 0 0 1 1.568-.65l.365.2c2.05 1.116 4.293-1.128 3.175-3.177l-.198-.365a1.09 1.09 0 0 1 .65-1.568l.398-.118c2.238-.659 2.238-3.831 0-4.49l-.398-.117a1.091 1.091 0 0 1-.65-1.57l.2-.364c1.116-2.05-1.128-4.291-3.177-3.175l-.365.199a1.091 1.091 0 0 1-1.568-.65l-.118-.4Zm-3.291.354c.307-1.044 1.785-1.044 2.092 0l.118.398a2.34 2.34 0 0 0 3.366 1.394l.364-.2c.955-.519 2 .525 1.48 1.481l-.199.365a2.342 2.342 0 0 0 1.395 3.365l.398.118c1.043.307 1.043 1.785 0 2.092l-.4.118a2.341 2.341 0 0 0-1.393 3.366l.2.364c.519.955-.525 2-1.481 1.48l-.364-.199a2.34 2.34 0 0 0-3.366 1.395l-.118.398c-.307 1.043-1.785 1.043-2.092 0l-.118-.4a2.34 2.34 0 0 0-3.365-1.393l-.365.2c-.955.519-2-.525-1.48-1.481l.2-.364a2.341 2.341 0 0 0-1.395-3.367l-.398-.118c-1.044-.307-1.044-1.785 0-2.092l.398-.118a2.341 2.341 0 0 0 1.394-3.364l-.2-.365c-.519-.955.525-2 1.481-1.48l.365.2A2.341 2.341 0 0 0 8.836 2.43l.118-.398Z"/></g><defs><clipPath id="ja"><path fill="#fff" d="M0 0h20v20H0z"/></clipPath></defs></svg><svg viewBox="0 0 24 20" id="truck" xmlns="http://www.w3.org/2000/svg"><g clip-path="url(#ka)"><path d="M0 4.375A1.875 1.875 0 0 1 1.875 2.5h11.25A1.875 1.875 0 0 1 15 4.375V6.25h1.275a1.875 1.875 0 0 1 1.463.704l1.85 2.312c.267.333.412.746.412 1.173v2.686A1.875 1.875 0 0 1 18.125 15H17.5a2.5 2.5 0 0 1-5 0H6.25a2.5 2.5 0 1 1-4.998-.106A1.875 1.875 0 0 1 0 13.125v-8.75Zm1.617 9.32a2.499 2.499 0 0 1 4.298.055h6.92c.22-.38.535-.695.915-.915v-8.46a.625.625 0 0 0-.625-.625H1.875a.625.625 0 0 0-.625.625v8.75a.625.625 0 0 0 .367.57ZM15 12.5a2.5 2.5 0 0 1 2.165 1.25h.96a.624.624 0 0 0 .625-.625v-2.688a.625.625 0 0 0-.137-.39l-1.85-2.312a.625.625 0 0 0-.488-.235H15v5ZM3.75 13.75a1.25 1.25 0 1 0 0 2.5 1.25 1.25 0 0 0 0-2.5Zm11.25 0a1.25 1.25 0 1 0 0 2.5 1.25 1.25 0 0 0 0-2.5Z"/></g><defs><clipPath id="ka"><path fill="#fff" d="M0 0h20v20H0z"/></clipPath></defs></svg></svg>