<svg width="25" height="24" viewBox="0 0 25 24"  xmlns="http://www.w3.org/2000/svg">
    <g clip-path="url(#clip0_201_222)">
        <path d="M4.56424 7.50002H3.78124C3.67343 7.50012 3.56691 7.52347 3.46894 7.56847C3.37097 7.61347 3.28385 7.67907 3.21352 7.76078C3.14319 7.8425 3.09131 7.93842 3.06141 8.042C3.0315 8.14558 3.02429 8.25439 3.04024 8.36102L5.09824 22.0845C5.17829 22.617 5.44662 23.1031 5.85451 23.4545C6.2624 23.806 6.78281 23.9995 7.32124 24H18.2382C18.7769 23.9999 19.2977 23.8065 19.7059 23.455C20.1141 23.1035 20.3827 22.6172 20.4627 22.0845L22.5222 8.36102C22.5382 8.25439 22.531 8.14558 22.5011 8.042C22.4712 7.93842 22.4193 7.8425 22.349 7.76078C22.2786 7.67907 22.1915 7.61347 22.0935 7.56847C21.9956 7.52347 21.8891 7.50012 21.7812 7.50002H20.9982C20.8141 5.44784 19.8688 3.53882 18.3481 2.1485C16.8275 0.758176 14.8417 -0.0128174 12.7812 -0.0128174C10.7208 -0.0128174 8.73497 0.758176 7.21434 2.1485C5.6937 3.53882 4.74835 5.44784 4.56424 7.50002ZM6.07174 7.50002C6.25511 5.84897 7.04088 4.32353 8.27866 3.21561C9.51643 2.10769 11.1193 1.49512 12.7805 1.49512C14.4417 1.49512 16.0445 2.10769 17.2823 3.21561C18.5201 4.32353 19.3059 5.84897 19.4892 7.50002H6.07174ZM20.9097 9.00002L18.9807 21.861C18.9542 22.0386 18.8648 22.2007 18.7288 22.318C18.5928 22.4353 18.4193 22.4998 18.2397 22.5H7.32124C7.14169 22.4998 6.96816 22.4353 6.83219 22.318C6.69621 22.2007 6.60682 22.0386 6.58024 21.861L4.65124 9.00002H20.9082H20.9097Z"
              />
    </g>
    <defs>
        <clipPath id="clip0_201_222">
            <rect width="24" height="24"  transform="translate(0.78125)"/>
        </clipPath>
    </defs>
</svg>
