<svg width="20" height="21" viewBox="0 0 20 21" xmlns="http://www.w3.org/2000/svg">
    <g clip-path="url(#clip0_2_302)">
        <path fill-rule="evenodd" clip-rule="evenodd"
              d="M12.5 16.125C12.5 16.2908 12.4342 16.4497 12.3169 16.5669C12.1997 16.6842 12.0408 16.75 11.875 16.75H1.875C1.70924 16.75 1.55027 16.6842 1.43306 16.5669C1.31585 16.4497 1.25 16.2908 1.25 16.125V4.875C1.25 4.70924 1.31585 4.55027 1.43306 4.43306C1.55027 4.31585 1.70924 4.25 1.875 4.25H11.875C12.0408 4.25 12.1997 4.31585 12.3169 4.43306C12.4342 4.55027 12.5 4.70924 12.5 4.875V7.375C12.5 7.54076 12.5658 7.69973 12.6831 7.81694C12.8003 7.93415 12.9592 8 13.125 8C13.2908 8 13.4497 7.93415 13.5669 7.81694C13.6842 7.69973 13.75 7.54076 13.75 7.375V4.875C13.75 4.37772 13.5525 3.90081 13.2008 3.54917C12.8492 3.19754 12.3723 3 11.875 3H1.875C1.37772 3 0.900805 3.19754 0.549175 3.54917C0.197544 3.90081 0 4.37772 0 4.875L0 16.125C0 16.6223 0.197544 17.0992 0.549175 17.4508C0.900805 17.8025 1.37772 18 1.875 18H11.875C12.3723 18 12.8492 17.8025 13.2008 17.4508C13.5525 17.0992 13.75 16.6223 13.75 16.125V13.625C13.75 13.4592 13.6842 13.3003 13.5669 13.1831C13.4497 13.0658 13.2908 13 13.125 13C12.9592 13 12.8003 13.0658 12.6831 13.1831C12.5658 13.3003 12.5 13.4592 12.5 13.625V16.125Z"
        />
        <path fill-rule="evenodd" clip-rule="evenodd"
              d="M19.8175 10.9425C19.8757 10.8844 19.9219 10.8155 19.9534 10.7395C19.9849 10.6636 20.0011 10.5822 20.0011 10.5C20.0011 10.4178 19.9849 10.3364 19.9534 10.2605C19.9219 10.1845 19.8757 10.1156 19.8175 10.0575L16.0675 6.3075C15.9501 6.19014 15.791 6.12421 15.625 6.12421C15.459 6.12421 15.2999 6.19014 15.1825 6.3075C15.0651 6.42485 14.9992 6.58403 14.9992 6.75C14.9992 6.91597 15.0651 7.07514 15.1825 7.1925L17.8663 9.875H6.875C6.70924 9.875 6.55027 9.94084 6.43306 10.0581C6.31585 10.1753 6.25 10.3342 6.25 10.5C6.25 10.6658 6.31585 10.8247 6.43306 10.9419C6.55027 11.0591 6.70924 11.125 6.875 11.125H17.8663L15.1825 13.8075C15.0651 13.9249 14.9992 14.084 14.9992 14.25C14.9992 14.416 15.0651 14.5751 15.1825 14.6925C15.2999 14.8099 15.459 14.8758 15.625 14.8758C15.791 14.8758 15.9501 14.8099 16.0675 14.6925L19.8175 10.9425Z"
        />
    </g>
    <defs>
        <clipPath id="clip0_2_302">
            <rect width="20" height="20" fill="white" transform="translate(0 0.5)"/>
        </clipPath>
    </defs>
</svg>
