<svg width="25" height="25" viewBox="0 0 25 25"  xmlns="http://www.w3.org/2000/svg">
    <path d="M12.125 12.125C13.5837 12.125 14.9826 11.5455 16.0141 10.5141C17.0455 9.48264 17.625 8.08369 17.625 6.625C17.625 5.16631 17.0455 3.76736 16.0141 2.73591C14.9826 1.70446 13.5837 1.125 12.125 1.125C10.6663 1.125 9.26736 1.70446 8.23591 2.73591C7.20446 3.76736 6.625 5.16631 6.625 6.625C6.625 8.08369 7.20446 9.48264 8.23591 10.5141C9.26736 11.5455 10.6663 12.125 12.125 12.125ZM15.7917 6.625C15.7917 7.59746 15.4054 8.53009 14.7177 9.21772C14.0301 9.90536 13.0975 10.2917 12.125 10.2917C11.1525 10.2917 10.2199 9.90536 9.53228 9.21772C8.84464 8.53009 8.45833 7.59746 8.45833 6.625C8.45833 5.65254 8.84464 4.71991 9.53228 4.03227C10.2199 3.34464 11.1525 2.95833 12.125 2.95833C13.0975 2.95833 14.0301 3.34464 14.7177 4.03227C15.4054 4.71991 15.7917 5.65254 15.7917 6.625ZM23.125 21.2917C23.125 23.125 21.2917 23.125 21.2917 23.125H2.95833C2.95833 23.125 1.125 23.125 1.125 21.2917C1.125 19.4583 2.95833 13.9583 12.125 13.9583C21.2917 13.9583 23.125 19.4583 23.125 21.2917ZM21.2917 21.2843C21.2898 20.8333 21.0093 19.4767 19.7663 18.2337C18.571 17.0383 16.3215 15.7917 12.125 15.7917C7.92667 15.7917 5.679 17.0383 4.48367 18.2337C3.24067 19.4767 2.962 20.8333 2.95833 21.2843H21.2917Z"
          />
</svg>
