<svg width="25" height="24" viewBox="0 0 25 24" xmlns="http://www.w3.org/2000/svg">
    <g clip-path="url(#clip0_201_227)">
        <path d="M12.7812 5.21366L11.7057 4.0836C9.18121 1.43094 4.55221 2.34634 2.88121 5.68133C2.09671 7.24992 1.91971 9.51465 3.35221 12.405C4.73221 15.188 7.60321 18.5214 12.7812 22.1523C17.9592 18.5214 20.8287 15.188 22.2102 12.405C23.6427 9.51311 23.4672 7.24992 22.6812 5.68133C21.0102 2.34634 16.3812 1.42941 13.8567 4.08206L12.7812 5.21366ZM12.7812 24C-10.2183 8.46432 5.69971 -3.66124 12.5172 2.75267C12.6072 2.837 12.6957 2.9244 12.7812 3.01487C12.8658 2.92448 12.9539 2.83753 13.0452 2.7542C19.8612 -3.66431 35.7807 8.46278 12.7812 24Z"
        />
    </g>
    <defs>
        <clipPath id="clip0_201_227">
            <rect width="24" height="24" transform="translate(0.78125)"/>
        </clipPath>
    </defs>
</svg>
