<svg width="20" height="20" viewBox="0 0 20 20" xmlns="http://www.w3.org/2000/svg">
    <path d="M7.2 10.4C8.15478 10.4 9.07045 10.0207 9.74559 9.34554C10.4207 8.6704 10.8 7.75473 10.8 6.79995C10.8 5.84517 10.4207 4.9295 9.74559 4.25437C9.07045 3.57924 8.15478 3.19995 7.2 3.19995C6.24522 3.19995 5.32955 3.57924 4.65442 4.25437C3.97929 4.9295 3.6 5.84517 3.6 6.79995C3.6 7.75473 3.97929 8.6704 4.65442 9.34554C5.32955 10.0207 6.24522 10.4 7.2 10.4ZM9.6 6.79995C9.6 7.43647 9.34714 8.04692 8.89706 8.49701C8.44697 8.94709 7.83652 9.19995 7.2 9.19995C6.56348 9.19995 5.95303 8.94709 5.50294 8.49701C5.05286 8.04692 4.8 7.43647 4.8 6.79995C4.8 6.16343 5.05286 5.55298 5.50294 5.10289C5.95303 4.65281 6.56348 4.39995 7.2 4.39995C7.83652 4.39995 8.44697 4.65281 8.89706 5.10289C9.34714 5.55298 9.6 6.16343 9.6 6.79995ZM14.4 16.4C14.4 17.6 13.2 17.6 13.2 17.6H1.2C1.2 17.6 0 17.6 0 16.4C0 15.2 1.2 11.6 7.2 11.6C13.2 11.6 14.4 15.2 14.4 16.4ZM13.2 16.3952C13.1988 16.1 13.0152 15.212 12.2016 14.3984C11.4192 13.616 9.9468 12.8 7.2 12.8C4.452 12.8 2.9808 13.616 2.1984 14.3984C1.3848 15.212 1.2024 16.1 1.2 16.3952H13.2Z"
    />
    <path d="M14.4 5.39505C14.4 5.23724 14.459 5.0859 14.564 4.97432C14.6691 4.86274 14.8115 4.80005 14.96 4.80005H19.44C19.5885 4.80005 19.731 4.86274 19.836 4.97432C19.941 5.0859 20 5.23724 20 5.39505C20 5.55285 19.941 5.70419 19.836 5.81578C19.731 5.92736 19.5885 5.99005 19.44 5.99005H14.96C14.8115 5.99005 14.6691 5.92736 14.564 5.81578C14.459 5.70419 14.4 5.55285 14.4 5.39505ZM14.96 8.37005C14.8115 8.37005 14.6691 8.43274 14.564 8.54432C14.459 8.6559 14.4 8.80725 14.4 8.96505C14.4 9.12285 14.459 9.27419 14.564 9.38578C14.6691 9.49736 14.8115 9.56005 14.96 9.56005H19.44C19.5885 9.56005 19.731 9.49736 19.836 9.38578C19.941 9.27419 20 9.12285 20 8.96505C20 8.80725 19.941 8.6559 19.836 8.54432C19.731 8.43274 19.5885 8.37005 19.44 8.37005H14.96ZM17.2 11.94C17.0515 11.94 16.9091 12.0027 16.804 12.1143C16.699 12.2259 16.64 12.3772 16.64 12.535C16.64 12.6929 16.699 12.8442 16.804 12.9558C16.9091 13.0674 17.0515 13.13 17.2 13.13H19.44C19.5885 13.13 19.731 13.0674 19.836 12.9558C19.941 12.8442 20 12.6929 20 12.535C20 12.3772 19.941 12.2259 19.836 12.1143C19.731 12.0027 19.5885 11.94 19.44 11.94H17.2ZM17.2 15.51C17.0515 15.51 16.9091 15.5727 16.804 15.6843C16.699 15.7959 16.64 15.9472 16.64 16.105C16.64 16.2629 16.699 16.4142 16.804 16.5258C16.9091 16.6374 17.0515 16.7 17.2 16.7H19.44C19.5885 16.7 19.731 16.6374 19.836 16.5258C19.941 16.4142 20 16.2629 20 16.105C20 15.9472 19.941 15.7959 19.836 15.6843C19.731 15.5727 19.5885 15.51 19.44 15.51H17.2Z"
    />
</svg>
